<svg width="18" height="16" viewBox="0 0 18 16" fill="none" xmlns="http://www.w3.org/2000/svg">
<path d="M8.34102 3.17001L8.99998 4.38257L9.65897 3.17003C9.92764 2.67567 10.3718 2.02126 11.018 1.51805L10.5572 0.926301L11.018 1.51805C11.679 1.00327 12.4132 0.75 13.2188 0.75C15.4694 0.75 17.25 2.59548 17.25 5.22173C17.25 6.60068 16.7104 7.79162 15.6535 9.07571C14.5776 10.3829 13.0235 11.7196 11.0655 13.3997L11.0655 13.3997L11.065 13.4001C10.4412 13.9354 9.73558 14.5409 9.00002 15.1869C8.2651 14.5415 7.56001 13.9364 6.93694 13.4018L6.93497 13.4001L6.93496 13.4001C4.97666 11.7198 3.42251 10.383 2.34655 9.07575C1.2896 7.79161 0.75 6.60068 0.75 5.22173C0.75 2.59548 2.53057 0.75 4.78125 0.75C5.58675 0.75 6.32096 1.00327 6.98203 1.51805L7.43951 0.930552L6.98203 1.51805C7.62824 2.02126 8.07236 2.67564 8.34102 3.17001Z" stroke="#2C2D42" stroke-width="1.5"/>
</svg>
