<svg xmlns="http://www.w3.org/2000/svg" width="183.625" height="26.37" viewBox="0 0 183.625 26.37">
  <g id="Сгруппировать_20" data-name="Сгруппировать 20" transform="translate(-195.831 -33.789)">
    <path id="Контур_100" data-name="Контур 100" d="M-480.927-426.03v-3.8h-13.747v3.8h-3.264v-6.806h1.891l6.185-19.151h9.622v19.151h2.577v6.806Zm-11.684-6.806h9.107V-448.98h-3.952Zm130.122,3.008-5.155-9.656h-3.264v9.656h-3.265v-19.184h-2.933v-2.975h6.2v9.5h3.264l5.155-9.5h3.609l-6.014,11.079,6.014,11.08Zm-18.213,0-1.889-5.382h-7.9l-1.889,5.382h-3.436l7.56-22.159h3.436l7.561,22.159Zm-8.934-8.231h6.186l-3.093-9.022Zm-21.3,8.231v-12.5h0v-4.31h3.253v4.31h4.648a3.661,3.661,0,0,0,2.577-.949,3.1,3.1,0,0,0,1.03-2.375,3.1,3.1,0,0,0-1.03-2.374,3.661,3.661,0,0,0-2.577-.949h-7.9v-3.007h7.9a7.028,7.028,0,0,1,2.662.507,7.12,7.12,0,0,1,2.183,1.361,6.506,6.506,0,0,1,1.477,2.011,5.624,5.624,0,0,1,.549,2.452,5.622,5.622,0,0,1-.549,2.454,6.518,6.518,0,0,1-1.477,2.011,7.145,7.145,0,0,1-2.183,1.362,7.05,7.05,0,0,1-2.662.507h-4.64v9.5Zm-44.959,0v-12.5h0v-4.327h3.252v4.327H-448a3.659,3.659,0,0,0,2.577-.949,3.1,3.1,0,0,0,1.031-2.375,3.1,3.1,0,0,0-1.031-2.374A3.66,3.66,0,0,0-448-448.98h-7.788v-3.007H-448a7.029,7.029,0,0,1,2.663.507,7.115,7.115,0,0,1,2.182,1.361,6.491,6.491,0,0,1,1.477,2.011,5.627,5.627,0,0,1,.551,2.452,5.624,5.624,0,0,1-.551,2.454,6.5,6.5,0,0,1-1.477,2.011,7.14,7.14,0,0,1-2.182,1.362,7.051,7.051,0,0,1-2.663.507h-4.639v9.5Zm-18.212,0v-22.159h14.432v3.007h-11.168v6.49h8.075v3.007h-8.075v6.648h11.168v3.008Zm-30.265,0v-16.144l-8.591,16.144h-3.264v-19.2h-3.326V-452h5.255v.013h1.336v16.144l8.591-16.144h3.265v22.159Zm-21.944,0V-448.98h-3.951l-6.186,19.152h-3.406v0h-2.106V-432.8h3.071l6.22-19.182h9.622v22.159Z" transform="translate(738 485.988)"/>
    <path id="Контур_100_-_Рамка" data-name="Контур 100 - Рамка" d="M-477.463-425.83h-3.664v-3.8h-13.347v3.8h-3.664v-7.206h1.945l6.185-19.151h9.968v19.151h2.577Zm-3.264-.4h2.864v-6.406h-2.577v-19.151h-9.277l-6.185,19.151h-1.836v6.406h2.864v-3.8h14.147Zm122.183-3.4h-4.065l-.056-.106-5.1-9.55h-2.944v9.656h-3.665v-19.184H-377.3v-3.375h6.6v9.5h2.945l5.155-9.5h4.064l-6.122,11.279Zm-3.825-.4h3.153l-5.905-10.88.052-.1,5.853-10.784h-3.154l-5.155,9.5h-3.583v-9.5h-5.8v2.575h2.933v19.184h2.865v-9.656h3.584l.056.106Zm-14.616.4h-3.859l-1.889-5.382h-7.62l-1.889,5.382H-396.1l7.7-22.559h3.722Zm-3.575-.4h3.016l-7.424-21.759h-3.15l-7.423,21.759h3.015l1.889-5.382h8.188Zm-26.917.4h-3.664v-12.9h0v-4.31h3.653v4.31h4.448a3.483,3.483,0,0,0,2.442-.9,2.879,2.879,0,0,0,.966-2.228,2.878,2.878,0,0,0-.966-2.227,3.484,3.484,0,0,0-2.442-.9h-8.1v-3.407h8.1a7.26,7.26,0,0,1,2.737.521,7.349,7.349,0,0,1,2.243,1.4,6.732,6.732,0,0,1,1.522,2.072,5.85,5.85,0,0,1,.569,2.538,5.846,5.846,0,0,1-.569,2.54,6.747,6.747,0,0,1-1.522,2.071,7.376,7.376,0,0,1-2.243,1.4,7.282,7.282,0,0,1-2.737.521h-4.44Zm-3.264-.4h2.864v-9.5h4.84a6.883,6.883,0,0,0,2.588-.492,6.976,6.976,0,0,0,2.122-1.323,6.349,6.349,0,0,0,1.432-1.949,5.45,5.45,0,0,0,.53-2.368,5.453,5.453,0,0,0-.53-2.366,6.335,6.335,0,0,0-1.432-1.95,6.951,6.951,0,0,0-2.122-1.322,6.863,6.863,0,0,0-2.588-.492h-7.7v2.607h7.7a3.871,3.871,0,0,1,2.713,1,3.3,3.3,0,0,1,1.095,2.521,3.3,3.3,0,0,1-1.095,2.522,3.871,3.871,0,0,1-2.713,1h-4.848v-4.31h-2.853v4.31h0Zm-41.694.4H-456.1v-12.9h0v-4.327h3.652v4.327H-448a3.438,3.438,0,0,0,2.442-.9,2.879,2.879,0,0,0,.967-2.228,2.879,2.879,0,0,0-.967-2.227,3.439,3.439,0,0,0-2.442-.9h-7.988v-3.407H-448a7.263,7.263,0,0,1,2.738.521,7.346,7.346,0,0,1,2.242,1.4,6.72,6.72,0,0,1,1.522,2.072,5.852,5.852,0,0,1,.57,2.538,5.848,5.848,0,0,1-.57,2.54,6.734,6.734,0,0,1-1.522,2.072,7.372,7.372,0,0,1-2.242,1.4,7.284,7.284,0,0,1-2.738.521h-4.439Zm-3.265-.4h2.865v-9.5H-448a6.885,6.885,0,0,0,2.589-.492,6.973,6.973,0,0,0,2.121-1.323,6.336,6.336,0,0,0,1.432-1.949,5.452,5.452,0,0,0,.531-2.368,5.455,5.455,0,0,0-.531-2.366,6.322,6.322,0,0,0-1.432-1.95,6.949,6.949,0,0,0-2.121-1.322,6.865,6.865,0,0,0-2.589-.492h-7.588v2.607H-448a3.871,3.871,0,0,1,2.713,1,3.3,3.3,0,0,1,1.1,2.521,3.3,3.3,0,0,1-1.1,2.522,3.871,3.871,0,0,1-2.713,1h-4.849v-4.327H-455.7v4.327h0Zm-3.78.4h-14.832v-22.559h14.832v3.407h-11.168v6.09h8.075v3.407h-8.075v6.248h11.168Zm-14.432-.4h14.032v-2.608h-11.168v-7.048h8.075v-2.607h-8.075v-6.89h11.168v-2.607h-14.032Zm-27,.4h-3.665V-445.17l-8.271,15.543h-3.584v-19.2h-3.326V-452.2h5.655v.013h1.336v15.543l8.271-15.543h3.585Zm-3.265-.4h2.865v-21.759h-2.945l-8.534,16.038-.377-.094v-15.944H-514.5v-.013h-4.855v2.575h3.326v19.2h2.944l8.534-16.038.377.094Zm-18.679.4h-3.665V-448.78h-3.605l-6.186,19.152h-3.83v0h-2.027V-433h3.125l6.22-19.182h9.968Zm-3.265-.4h2.865v-21.759h-9.277l-6.22,19.182h-3.016v2.575h2.184v0h2.982l6.186-19.152h4.3Zm42.817-2.608h-9.58l5.282-16.544h4.3Zm-9.033-.4h8.633V-448.78h-3.606Zm109.167-4.824h-6.746l3.373-9.838Zm-6.186-.4h5.626l-2.813-8.205Z" transform="translate(738 485.988)"/>
    <path id="Контур_100-2" data-name="Контур 100" d="M-424.549-429.828v-13.665h-6.014V-446.5h15.292v3.008h-6.014v13.665Zm-6.014-19.152v-3.007h15.292v3.007Z" transform="translate(738.206 485.988)" fill="#fb8041"/>
    <path id="Контур_100_-_Рамка-2" data-name="Контур 100 - Рамка" d="M-421.084-429.628h-3.665v-13.665h-6.014V-446.7h15.692v3.408h-6.014Zm-3.265-.4h2.865v-13.665h6.014V-446.3h-14.892v2.608h6.014Zm9.279-18.752h-15.692v-3.407h15.692Zm-15.292-.4h14.892v-2.607h-14.892Z" transform="translate(738.206 485.988)" fill="#fb8041"/>
  </g>
</svg>
