<svg width="24" height="24" viewBox="0 0 24 24" fill="none" xmlns="http://www.w3.org/2000/svg">
<path d="M23.1738 13.2303C23.1986 13.1539 23.2058 13.0728 23.1948 12.9933C23.1838 12.9137 23.1549 12.8377 23.1103 12.7709L20.9769 9.57089C20.9709 9.56183 20.9586 9.55975 20.952 9.55109C20.8961 9.47413 20.8203 9.41387 20.7327 9.37681C20.7279 9.37479 20.7256 9.36913 20.7207 9.36721L17.5206 8.16721C17.3883 8.11814 17.2419 8.12349 17.1135 8.18211C16.9851 8.24072 16.8852 8.34781 16.8356 8.47993C16.786 8.61206 16.7908 8.75845 16.8489 8.88707C16.907 9.01568 17.0137 9.11604 17.1456 9.16616L19.0139 9.86662L11.9997 12.4969L4.98559 9.86665L6.49856 9.29953C6.63049 9.2494 6.73718 9.14905 6.79528 9.02043C6.85338 8.89182 6.85815 8.74542 6.80855 8.6133C6.75895 8.48117 6.65903 8.37408 6.53064 8.31547C6.40226 8.25686 6.25588 8.2515 6.12356 8.30057L3.27871 9.36724C3.27396 9.36906 3.27168 9.3746 3.26698 9.37655C3.17921 9.41364 3.10325 9.47402 3.04732 9.55115C3.04075 9.55975 3.0285 9.56182 3.02244 9.57089L0.889075 12.7709C0.844632 12.8378 0.815839 12.9138 0.80484 12.9933C0.79384 13.0729 0.800917 13.1539 0.825542 13.2303C0.850168 13.3067 0.891709 13.3766 0.947076 13.4348C1.00244 13.4929 1.07021 13.5378 1.14533 13.5662L2.93288 14.2365V17.9886C2.93486 18.531 3.1013 19.06 3.41021 19.5057C3.71913 19.9515 4.15599 20.2931 4.66312 20.4855L11.8122 23.1662C11.9331 23.2113 12.0663 23.2113 12.1872 23.1662L19.3363 20.4855C19.8434 20.2931 20.2803 19.9515 20.5892 19.5057C20.8981 19.06 21.0645 18.531 21.0665 17.9886V14.2365L22.854 13.5662C22.9292 13.5379 22.997 13.493 23.0524 13.4348C23.1077 13.3766 23.1493 13.3067 23.1738 13.2303ZM2.1495 12.8032L3.67486 10.5148L11.1829 13.3303L9.65692 15.6188L2.1495 12.8032ZM11.4664 21.8969L5.03812 19.4865C4.73375 19.3713 4.47151 19.1664 4.28607 18.8989C4.10063 18.6315 4.00073 18.314 3.99957 17.9886V14.6365L9.67883 16.7662C9.7916 16.8084 9.91532 16.8112 10.0299 16.7743C10.1445 16.7373 10.2432 16.6627 10.3101 16.5625L11.4664 14.8281L11.4664 21.8969ZM19.9998 17.9886C19.9987 18.314 19.8988 18.6315 19.7133 18.8989C19.5279 19.1664 19.2656 19.3713 18.9613 19.4865L12.533 21.8969V14.8281L13.6893 16.5625C13.7562 16.6627 13.8549 16.7373 13.9695 16.7742C14.0841 16.8112 14.2078 16.8084 14.3206 16.7662L19.9998 14.6365V17.9886ZM14.3424 15.6188L12.8164 13.3303L20.3245 10.5148L21.8499 12.8032L14.3424 15.6188ZM11.9997 7.20005C11.9296 7.20009 11.8603 7.18632 11.7955 7.15953C11.7308 7.13275 11.672 7.09346 11.6225 7.04393C11.5729 6.9944 11.5337 6.93559 11.5069 6.87086C11.4801 6.80614 11.4663 6.73677 11.4664 6.66672V1.33338C11.4664 1.19193 11.5225 1.05628 11.6226 0.956259C11.7226 0.856239 11.8582 0.800049 11.9997 0.800049C12.1411 0.800049 12.2768 0.856239 12.3768 0.956259C12.4768 1.05628 12.533 1.19193 12.533 1.33338V6.66672C12.5331 6.73677 12.5193 6.80614 12.4925 6.87086C12.4657 6.93559 12.4264 6.9944 12.3769 7.04393C12.3274 7.09346 12.2686 7.13275 12.2038 7.15953C12.1391 7.18632 12.0697 7.20009 11.9997 7.20005ZM8.42255 8.11047L5.2225 4.91047C5.12535 4.80988 5.07159 4.67516 5.0728 4.53532C5.07402 4.39548 5.13011 4.26172 5.229 4.16283C5.32788 4.06395 5.46165 4.00786 5.60149 4.00664C5.74133 4.00543 5.87605 4.05919 5.97664 4.15634L9.1767 7.35634C9.22764 7.40554 9.26827 7.46439 9.29622 7.52945C9.32417 7.59452 9.33888 7.66451 9.3395 7.73532C9.34011 7.80614 9.32662 7.87637 9.2998 7.94191C9.27299 8.00746 9.23338 8.06701 9.18331 8.11708C9.13323 8.16716 9.07368 8.20676 9.00814 8.23358C8.94259 8.26039 8.87236 8.27389 8.80154 8.27327C8.73073 8.27266 8.66074 8.25794 8.59567 8.22999C8.5306 8.20204 8.47175 8.16141 8.42255 8.11047ZM15.1997 8.26672C15.0943 8.2667 14.9912 8.23541 14.9035 8.17681C14.8158 8.11821 14.7474 8.03492 14.7071 7.93747C14.6667 7.84003 14.6561 7.7328 14.6767 7.62935C14.6973 7.52591 14.7481 7.43088 14.8227 7.35629L18.0227 4.15629C18.1233 4.05914 18.258 4.00539 18.3979 4.0066C18.5377 4.00782 18.6715 4.06391 18.7704 4.16279C18.8692 4.26168 18.9253 4.39544 18.9265 4.53528C18.9278 4.67512 18.874 4.80984 18.7768 4.91043L15.5768 8.11043C15.5273 8.16003 15.4686 8.19937 15.4039 8.2262C15.3392 8.25302 15.2698 8.26679 15.1997 8.26672Z" fill="white"/>
</svg>
