<svg width="16" height="16" viewBox="0 0 16 16" fill="none" xmlns="http://www.w3.org/2000/svg">
<path d="M15.2523 13.872V16H0.747559V13.8715C0.747559 12.8666 1.61391 11.6295 2.67225 11.1268L5.02728 10.0079L6.66208 13.4147L7.49911 11.1452C7.66415 11.1764 7.82777 11.2181 7.99991 11.2181C8.17204 11.2181 8.33519 11.1764 8.50071 11.1452L9.29517 13.3031L10.8978 9.97009L13.329 11.1263C14.3859 11.629 15.2523 12.8661 15.2523 13.872ZM2.88695 6.41343V4.87651C2.88695 4.61595 3.02267 4.38754 3.22743 4.25607C3.50218 1.86416 5.53659 0 8.00085 0C10.4651 0 12.5 1.86416 12.7752 4.25607C12.9795 4.38754 13.1152 4.61595 13.1152 4.87651V6.41343C13.1152 6.82154 12.7847 7.15257 12.3761 7.15257C11.9675 7.15257 11.637 6.82154 11.637 6.41343V6.09044C11.2369 8.10262 9.76381 9.97056 8.00133 9.97056C6.23884 9.97056 4.76577 8.10262 4.36569 6.09044V6.41343C4.36569 6.74446 4.1458 7.02158 3.84551 7.11568C4.13965 8.11681 4.79225 8.98173 5.69359 9.54921C5.86005 9.49436 6.07002 9.50476 6.27383 9.61069C6.60108 9.78093 6.76801 10.112 6.64411 10.3484C6.52069 10.5849 6.15561 10.6378 5.82647 10.4671C5.58624 10.3418 5.43397 10.1313 5.41789 9.93462C4.38556 9.27446 3.65351 8.26388 3.35133 7.09819C3.07989 6.98942 2.88695 6.7246 2.88695 6.41343ZM3.73107 4.08347C3.75329 4.08489 3.77457 4.08536 3.79585 4.0934C3.84929 4.11326 3.88807 4.15156 3.91502 4.19649C4.07534 4.26459 4.20302 4.38896 4.28152 4.54312C4.49952 2.49973 6.079 1.41869 7.99991 1.41869C9.92082 1.41869 11.5003 2.49973 11.7183 4.54312C11.8266 4.33079 12.0323 4.17899 12.2787 4.14731C11.959 2.06987 10.1648 0.472424 7.99991 0.472424C5.85721 0.472897 4.07723 2.03771 3.73107 4.08347Z" fill="#2C2D42"/>
</svg>
