<svg width="16" height="16" viewBox="0 0 16 16" fill="none" xmlns="http://www.w3.org/2000/svg">
<path d="M15.4641 14.1694L12.4912 11.1965C13.3922 10.0171 13.8864 8.58648 13.8865 7.07686C13.8865 5.25763 13.178 3.54716 11.8914 2.26078C10.605 0.974406 8.89479 0.265869 7.07533 0.265869C5.25609 0.265869 3.54562 0.974406 2.25925 2.26078C-0.396311 4.91656 -0.396311 9.23761 2.25925 11.8929C3.54562 13.1795 5.25609 13.8881 7.07533 13.8881C8.58494 13.8879 10.0156 13.3937 11.195 12.4928L14.1679 15.4656C14.3467 15.6447 14.5814 15.7342 14.816 15.7342C15.0505 15.7342 15.2853 15.6447 15.4641 15.4656C15.8222 15.1078 15.8222 14.5272 15.4641 14.1694ZM3.55547 10.5967C1.61472 8.65597 1.61494 5.49799 3.55547 3.55701C4.49564 2.61707 5.74576 2.0992 7.07533 2.0992C8.40512 2.0992 9.65502 2.61707 10.5952 3.55701C11.5353 4.49717 12.0532 5.74729 12.0532 7.07686C12.0532 8.40666 11.5353 9.65656 10.5952 10.5967C9.65502 11.5369 8.40512 12.0547 7.07533 12.0547C5.74576 12.0547 4.49564 11.5369 3.55547 10.5967Z" fill="#2C2D42"/>
</svg>
